<svg xmlns="http://www.w3.org/2000/svg" viewBox="0 0 156.96 26.11"><defs><style>.cls-1{fill:#b6b7b9}.cls-1,.cls-2{fill-rule:evenodd}.cls-2,.cls-3{fill:#88898a}</style></defs><g id="Warstwa_2" data-name="Warstwa 2"><g id="Warstwa_1-2" data-name="Warstwa 1"><path class="cls-1" d="M135.36 6.21h2.16a1.67 1.67 0 0 1 1.56 1.28c0 .1.06.19.08.29s0 .17.16 0a6.56 6.56 0 0 1 1.27-1.13 5.2 5.2 0 0 1 2.14-.8 5.46 5.46 0 0 1 1.6 0 3.9 3.9 0 0 1 3 2.13c.15.29.17.3.36 0a5.56 5.56 0 0 1 2.07-1.69 5.9 5.9 0 0 1 1.74-.51 5.84 5.84 0 0 1 1.66 0 3.93 3.93 0 0 1 3.36 2.62 7.71 7.71 0 0 1 .41 1.91v10.08h-2.06a1.87 1.87 0 0 1-1.47-.59 1.75 1.75 0 0 1-.4-1.15v-6.52a7.1 7.1 0 0 0-.14-1.6 1.32 1.32 0 0 0-1.3-1.13 2.83 2.83 0 0 0-2.63 1.6 5.37 5.37 0 0 0-.7 1.85 6.93 6.93 0 0 0-.14 1.5v6c0 .18-.05.21-.22.21h-3.52c-.16 0-.22 0-.21-.2v-8.24a4 4 0 0 0-.27-1.62 1.56 1.56 0 0 0-1.69-.95 2.49 2.49 0 0 0-1.89 1.14 5.23 5.23 0 0 0-.85 1.94 8.61 8.61 0 0 0-.21 2v5.74c0 .17 0 .21-.21.21h-3.52c-.16 0-.22 0-.22-.2v-5.3a.32.32 0 0 1 0-.18.11.11 0 0 1 0 .09v5.43a1.6 1.6 0 0 1 0-.17V6.49a.47.47 0 0 1 .08-.28z"/><path class="cls-2" d="M64.31 0a4.11 4.11 0 0 1 .84.31 2.4 2.4 0 0 1-.71 4.43 2.37 2.37 0 0 1-2.84-1.93A2.38 2.38 0 0 1 63.49 0h.1zm-3.44 20.54h-3.82a2 2 0 0 1-1.61-1c-.41-.65-.73-1.35-1.1-2-.45-.84-.9-1.68-1.33-2.52a.68.68 0 0 0-.56-.38 3.64 3.64 0 0 0-.55 0c-.29 0-.25 0-.25.25v5.57c0 .15 0 .16-.16.16h-3.84c-.12 0-.15 0-.15-.15V.92c0-.28 0-.25.24-.24h2.25a1.55 1.55 0 0 1 1.57 1.2 3.07 3.07 0 0 1 .08.77v8.11c0 .26 0 .26.27.26h.64a1 1 0 0 0 .81-.48c.89-1.4 1.8-2.79 2.7-4.19a.25.25 0 0 1 .24-.14h4.51l-.32.49L57 11.87a5.21 5.21 0 0 1-.63.78s-.1.08 0 .15a6.62 6.62 0 0 1 1.16 1.87c.91 1.81 2 3.53 3 5.26zM72.54 7.77c.24-.22.45-.46.69-.66a5.58 5.58 0 0 1 3.4-1.28 6.4 6.4 0 0 1 2.57.35A4.14 4.14 0 0 1 81.77 9a7.46 7.46 0 0 1 .33 2.25v9.06c0 .27 0 .24-.25.24h-2.1A1.76 1.76 0 0 1 78 18.68v-6.76a4.37 4.37 0 0 0-.12-1.07 1.45 1.45 0 0 0-1.51-1.19 3.42 3.42 0 0 0-3.53 2.78 5.79 5.79 0 0 0-.17 1.4v6.46c0 .18 0 .23-.22.23h-3.74c-.16 0-.19 0-.19-.2V6.27c0-.08 0-.15.11-.14h2.2a1.75 1.75 0 0 1 1.67 1.51 1.07 1.07 0 0 0 .04.13z"/><path class="cls-1" d="M117.71 10v1c0 .12 0 .17-.15.16h-2a1.45 1.45 0 0 1-1.42-1.16.82.82 0 0 0-.6-.52 3.73 3.73 0 0 0-4 1.09 4 4 0 0 0-.81 1.65 4.72 4.72 0 0 0-.05 2 3.56 3.56 0 0 0 2 2.66 4.41 4.41 0 0 0 2.65.37 5.56 5.56 0 0 0 2.46-1.1 5.53 5.53 0 0 0 .88-.79c.07-.08.1-.09.16 0l1.62 2.64c.06.1 0 .18 0 .26a7.44 7.44 0 0 1-1.7 1.39 7.86 7.86 0 0 1-2.22.94 8.83 8.83 0 0 1-3.3.18 7.66 7.66 0 0 1-3.28-1.17 7 7 0 0 1-2.79-3.48 7.78 7.78 0 0 1-.48-3 7.22 7.22 0 0 1 5.09-6.87 9 9 0 0 1 2.48-.42 7.91 7.91 0 0 1 3.33.59A3.57 3.57 0 0 1 117.43 8a2.38 2.38 0 0 1 .28 1.18v.74z"/><path class="cls-2" d="M62.05 13.34v-7c0-.08 0-.18.12-.17h2.25a1.75 1.75 0 0 1 1.71 1.7 5.46 5.46 0 0 1 0 .55v11.91c0 .17 0 .21-.21.21h-3.65c-.17 0-.2-.05-.2-.21v-7z"/><path class="cls-1" d="M101.58 20.69a2.38 2.38 0 0 1-2.4-2.4 2.4 2.4 0 1 1 2.4 2.4z"/><path class="cls-2" d="M97.56 19.82a1 1 0 0 1 0-.34V6.4c0-.26 0-.26-.27-.26h-1.8c.05-.05.12 0 .18 0h1.76c.13 0 .17 0 .17.16v13.29c-.02.05-.03.14-.04.23z"/><path class="cls-1" d="M135.36 6.21V20.5a.38.38 0 0 1 0-.24V6.47c-.04-.08-.08-.18 0-.26z"/><path class="cls-3" d="M11.25 10.23l-.42-.23.27-.24a5.43 5.43 0 0 0 .9-.9 5 5 0 0 0 1-3.39 4.61 4.61 0 0 0-2.49-4A7.21 7.21 0 0 0 7 .63H2.11a2 2 0 0 0-1.62.79 2.59 2.59 0 0 0-.44 1v18.04H7A8.78 8.78 0 0 0 9.85 20a5.53 5.53 0 0 0 3.2-2.53 5.66 5.66 0 0 0 .57-4 4.52 4.52 0 0 0-2.37-3.24zM3.82 6.77V5.14A1.11 1.11 0 0 1 5 3.9a11.48 11.48 0 0 1 2.29 0A2 2 0 0 1 9 5.6a2.7 2.7 0 0 1-.47 2.27 2 2 0 0 1-1.68.76H4c-.14 0-.17 0-.16-.17-.01-.55-.02-1.12-.02-1.69zm5.44 9.42a2.36 2.36 0 0 1-1.9.89H3.97c-.12 0-.14 0-.14-.15v-4a1.13 1.13 0 0 1 1.27-1.21h2.14a2.46 2.46 0 0 1 2.19 1.15 3.15 3.15 0 0 1-.17 3.32zM97.39 6.12H96a3.08 3.08 0 0 0-.55 0 1.66 1.66 0 0 0-1.58 1.06 5 5 0 0 0-.9-.67 6.24 6.24 0 0 0-4-.67 5.84 5.84 0 0 0-4.93 4 8.9 8.9 0 0 0-.2 5.68 6.46 6.46 0 0 0 2.07 3.29 6.24 6.24 0 0 0 4.48 1.43 4.84 4.84 0 0 0 3-1.07h.09a4.08 4.08 0 0 1 0 .76 2.52 2.52 0 0 1-1.5 2.17 5.44 5.44 0 0 1-3.14.28 13.1 13.1 0 0 1-1.73-.45 1.13 1.13 0 0 0-1.49.67l-.09.19c-.24.61-.48 1.23-.73 1.84-.05.13 0 .18.09.24A10.87 10.87 0 0 0 88.22 26l1 .15h1.68a8.58 8.58 0 0 0 1.47-.24A7.16 7.16 0 0 0 95.76 24a6.15 6.15 0 0 0 1.8-4.22V6.37a.76.76 0 0 1 0-.11c.02-.1-.03-.15-.17-.14zm-4.13 8.82a2.47 2.47 0 0 1-2.4 1.69 2.75 2.75 0 0 1-2.87-2A5.08 5.08 0 0 1 88 11a2.43 2.43 0 0 1 2.35-1.62 3.44 3.44 0 0 1 1.71.31 2.55 2.55 0 0 1 1.3 1.81 6.36 6.36 0 0 1 .2 1.5 5.69 5.69 0 0 1-.31 1.94z"/><path d="M133.67 11.38a7.1 7.1 0 0 0-3.4-4.54 7.76 7.76 0 0 0-3-.94 8.73 8.73 0 0 0-2.17 0 7.43 7.43 0 0 0-2.22.67A6.89 6.89 0 0 0 120 9.15a7.43 7.43 0 0 0-1.15 4.16 10.23 10.23 0 0 0 .07 1.11 7.55 7.55 0 0 0 .7 2.35 6.84 6.84 0 0 0 2.32 2.69 7.56 7.56 0 0 0 3.63 1.27 8.21 8.21 0 0 0 3.8-.52 6.93 6.93 0 0 0 3-2.2 7 7 0 0 0 1.22-2.36 8.82 8.82 0 0 0 .31-1.72 8.16 8.16 0 0 0-.23-2.55zm-3.83 1.82a4.42 4.42 0 0 1-.76 2.71 3.11 3.11 0 0 1-1.86 1.24 3.52 3.52 0 0 1-2.29-.18 3.24 3.24 0 0 1-1.63-1.62 4.56 4.56 0 0 1-.44-2.18 4 4 0 0 1 1.18-2.92 3.22 3.22 0 0 1 2.67-.86 3.28 3.28 0 0 1 2.86 2.32 3.8 3.8 0 0 1 .27 1.48z" fill="#b6b7b9"/><path class="cls-3" d="M42.06 6.65a8 8 0 0 0-6.06-.4 6.8 6.8 0 0 0-4.44 4.18 7.91 7.91 0 0 0-.36 4.5 6.93 6.93 0 0 0 2.66 4.32 7.6 7.6 0 0 0 4.68 1.5 8 8 0 0 0 1.93-.22 7 7 0 0 0 4.84-3.79 7.73 7.73 0 0 0 .58-5.18 6.82 6.82 0 0 0-3.83-4.91zM42 13.33a4.2 4.2 0 0 1-.85 2.7 3.25 3.25 0 0 1-2.84 1.22 3.38 3.38 0 0 1-3.18-2.89 4.62 4.62 0 0 1 .53-3.45A3.22 3.22 0 0 1 39 9.39 3.32 3.32 0 0 1 41.84 12a4.37 4.37 0 0 1 .16 1.33zM26 6.67a7.94 7.94 0 0 0-5.54-.59 6.87 6.87 0 0 0-4.9 4 7.85 7.85 0 0 0-.56 4.48 7 7 0 0 0 2.25 4.3 7.49 7.49 0 0 0 5.16 1.9 7.89 7.89 0 0 0 2.23-.29 6.93 6.93 0 0 0 4.6-3.85 7.76 7.76 0 0 0 .55-4.93A6.85 6.85 0 0 0 26 6.67zm-.63 8.89a3.13 3.13 0 0 1-2.63 1.69 3.38 3.38 0 0 1-3.67-2.78c0-.13-.05-.27-.08-.41a4 4 0 0 1 0-.76 4.19 4.19 0 0 1 .9-2.76 3.39 3.39 0 0 1 5.79 1.1 4.65 4.65 0 0 1-.31 3.91z"/></g></g></svg>