<svg xmlns="http://www.w3.org/2000/svg" viewBox="0 0 113.39 35.39"><defs><style>.cls-1{fill:#b6b7b9;fill-rule:evenodd;}</style></defs><title>Zasób 2</title><g id="Warstwa_2" data-name="Warstwa 2"><g id="Warstwa_1-2" data-name="Warstwa 1"><path class="cls-1" d="M59.76,8.89a2.3,2.3,0,1,1-2.3-2.3,2.3,2.3,0,0,1,2.3,2.3Zm-9.49,4.64v.57a4.42,4.42,0,0,0-3.44-1.42,6.78,6.78,0,0,0-6.87,7,6.78,6.78,0,0,0,6.87,7,4.3,4.3,0,0,0,3.44-1.45v.6a.48.48,0,0,0,.5.5h2.87V13H50.76a.51.51,0,0,0-.5.5Zm0,8.54a3.52,3.52,0,0,1-2.87,1.45,3.71,3.71,0,0,1-4-3.83,3.71,3.71,0,0,1,4-3.83,3.62,3.62,0,0,1,2.87,1.45v4.75Zm5.49-9h3.4V26.35h-3.4V13Zm50.79-.35a4.43,4.43,0,0,0-3.44,1.42V6.62h-3.4V26.35h2.87a.51.51,0,0,0,.5-.5v-.6h0a4.39,4.39,0,0,0,3.44,1.45,6.8,6.8,0,0,0,6.87-7,6.79,6.79,0,0,0-6.84-7ZM106,23.48A3.47,3.47,0,0,1,103.11,22V17.29A3.84,3.84,0,0,1,106,15.83a3.71,3.71,0,0,1,4,3.83,3.71,3.71,0,0,1-4,3.83Zm-8-5v7.93h-3.4V18.84c0-2.2-.71-3.08-2.62-3.08a3.8,3.8,0,0,0-2.76,1.31v9.28h-3.4V13h2.69a.51.51,0,0,1,.5.5v.57a4.88,4.88,0,0,1,3.61-1.42A5.51,5.51,0,0,1,96.28,14c1.2,1,1.66,2.27,1.66,4.5ZM77.5,12.68a4.43,4.43,0,0,0-3.44,1.42V6.62h-3.4V26.35h2.87a.51.51,0,0,0,.5-.5v-.6h0a4.39,4.39,0,0,0,3.44,1.45,6.8,6.8,0,0,0,6.87-7,6.75,6.75,0,0,0-6.84-7Zm-.57,10.8A3.47,3.47,0,0,1,74.07,22V17.29a3.84,3.84,0,0,1,2.87-1.45,3.71,3.71,0,0,1,4,3.83,3.71,3.71,0,0,1-4,3.83Zm-9.21-10.8a5.43,5.43,0,0,1,1.56.18V16s-2.83-1-4.6,1.06v9.32h-3.4V13h2.87a.51.51,0,0,1,.5.5v.57a4.65,4.65,0,0,1,3.08-1.42ZM32.41,25.15c-.18-.42-.35-.89-.53-1.28-.28-.64-.57-1.24-.81-1.81l0,0C28.59,16.72,26,11.33,23.2,6l-.11-.21c-.28-.53-.57-1.1-.85-1.66A10.18,10.18,0,0,0,21,2.2,5.72,5.72,0,0,0,16.47,0a6,6,0,0,0-4.53,2.13,12.22,12.22,0,0,0-1.28,1.95c-.28.57-.57,1.13-.85,1.66L9.71,6C7,11.26,4.32,16.65,1.88,22l0,.07c-.25.57-.53,1.17-.81,1.81q-.27.58-.53,1.28a8,8,0,0,0-.43,3.83,7.53,7.53,0,0,0,4.6,5.88,7.28,7.28,0,0,0,2.87.57,8,8,0,0,0,.92-.07A9.36,9.36,0,0,0,12,34.11a17.94,17.94,0,0,0,4.39-3.68,18.61,18.61,0,0,0,4.39,3.68,9.35,9.35,0,0,0,3.54,1.2,8.06,8.06,0,0,0,.92.07,7.16,7.16,0,0,0,2.87-.57,7.51,7.51,0,0,0,4.6-5.88,6.69,6.69,0,0,0-.32-3.79ZM16.44,27a17.47,17.47,0,0,1-3.58-6.59,5.71,5.71,0,0,1-.11-2.16,3.43,3.43,0,0,1,.57-1.49,3.76,3.76,0,0,1,3.12-1.56,3.63,3.63,0,0,1,3.12,1.56,3.43,3.43,0,0,1,.57,1.49A5.69,5.69,0,0,1,20,20.4,18,18,0,0,1,16.44,27Zm14.13,1.66a5.26,5.26,0,0,1-3.22,4.14,5.36,5.36,0,0,1-2.69.35A7,7,0,0,1,22,32.23a16.55,16.55,0,0,1-4-3.44A20,20,0,0,0,22.21,21a8.88,8.88,0,0,0,.18-3,5.75,5.75,0,0,0-1-2.41,6,6,0,0,0-5-2.51,6.06,6.06,0,0,0-5,2.51,5.75,5.75,0,0,0-1,2.41,7.36,7.36,0,0,0,.18,3A20.55,20.55,0,0,0,15,28.83a15.91,15.91,0,0,1-4,3.44,7,7,0,0,1-2.69.92,5.67,5.67,0,0,1-2.69-.35,5.26,5.26,0,0,1-3.22-4.14,5.86,5.86,0,0,1,.32-2.76c.11-.35.28-.71.46-1.13s.53-1.17.81-1.77l0-.07C6.38,17.68,9,12.29,11.73,7l.11-.21c.28-.53.57-1.1.85-1.63a7.77,7.77,0,0,1,1-1.56,3.72,3.72,0,0,1,5.67,0,7.78,7.78,0,0,1,1,1.56c.28.53.57,1.1.85,1.63l.11.21C24,12.33,26.6,17.71,29,23v0c.28.57.53,1.2.81,1.77s.35.78.46,1.13a6,6,0,0,1,.25,2.73Z"/></g></g></svg>