<svg xmlns="http://www.w3.org/2000/svg" viewBox="0 0 167.86 33.44"><defs><style>.cls-1{fill:#747476;}.cls-2{fill:#9e9fa1;}.cls-3{fill:#fff;}</style></defs><title>Zasób 3</title><g id="Warstwa_2" data-name="Warstwa 2"><g id="Warstwa_1-2" data-name="Warstwa 1"><polygon class="cls-1" points="42.26 9.98 42.26 17.45 50.9 17.45 50.9 9.98 53.23 9.98 53.23 27.83 50.9 27.83 50.9 19.46 42.26 19.46 42.26 27.83 39.96 27.83 39.96 9.98 42.26 9.98"/><path class="cls-1" d="M68.13,21.32c0,4.74-3.28,6.81-6.38,6.81-3.47,0-6.15-2.54-6.15-6.59,0-4.29,2.81-6.81,6.36-6.81s6.17,2.67,6.17,6.59M58,21.45c0,2.81,1.62,4.93,3.89,4.93s3.89-2.09,3.89-5c0-2.17-1.09-4.93-3.84-4.93S58,19,58,21.45"/><path class="cls-1" d="M70.44,18.48c0-1.33,0-2.41-.11-3.47h2l.1,2.07h.08a4.42,4.42,0,0,1,4-2.36,3.79,3.79,0,0,1,3.63,2.57h.05a5.3,5.3,0,0,1,1.43-1.67,4.37,4.37,0,0,1,2.83-.9c1.7,0,4.21,1.11,4.21,5.56v7.55H86.47V20.57c0-2.46-.9-3.95-2.78-3.95a3,3,0,0,0-2.75,2.12,3.86,3.86,0,0,0-.19,1.17v7.92H78.47V20.15c0-2-.9-3.52-2.68-3.52A3.19,3.19,0,0,0,72.91,19a3.22,3.22,0,0,0-.18,1.14v7.73H70.44Z"/><path class="cls-1" d="M93.27,21.73c.05,3.21,2.11,4.54,4.49,4.54a8.57,8.57,0,0,0,3.62-.68l.41,1.7a10.49,10.49,0,0,1-4.35.84c-4,0-6.43-2.67-6.43-6.62s2.32-7.05,6.13-7.05c4.27,0,5.4,3.76,5.4,6.16a8.86,8.86,0,0,1-.08,1.11Zm7-1.7c0-1.51-.62-3.86-3.3-3.86-2.4,0-3.46,2.22-3.65,3.86Z"/><path class="cls-2" d="M107.88,22.1,106,27.83h-2.43l6.19-18.21h2.84l6.21,18.21h-2.51l-1.95-5.73Zm6-1.84L112.07,15c-.4-1.19-.68-2.27-.95-3.32h-.05c-.27,1.08-.57,2.19-.92,3.3l-1.78,5.27Z"/><path class="cls-2" d="M121.14,14.76l1.73,6.65c.38,1.46.73,2.81,1,4.16h.08c.3-1.32.73-2.73,1.16-4.16l2.13-6.65h2l2,6.54c.49,1.57.86,2.95,1.16,4.27h.08a39.85,39.85,0,0,1,1-4.24l1.86-6.56h2.35l-4.22,13.08h-2.16l-2-6.24a43.64,43.64,0,0,1-1.16-4.3h-.05a38.54,38.54,0,0,1-1.19,4.32l-2.11,6.21h-2.16l-3.94-13.08Z"/><path class="cls-2" d="M148.53,24.7a18.35,18.35,0,0,0,.22,3.13h-2.16l-.19-1.65h-.08a4.87,4.87,0,0,1-4,1.95,3.73,3.73,0,0,1-4-3.76c0-3.16,2.81-4.89,7.86-4.86v-.27a2.69,2.69,0,0,0-3-3,6.52,6.52,0,0,0-3.41,1l-.54-1.57a8.12,8.12,0,0,1,4.3-1.16c4,0,5,2.73,5,5.35Zm-2.3-3.54c-2.59-.05-5.54.41-5.54,2.95a2.1,2.1,0,0,0,2.24,2.27,3.25,3.25,0,0,0,3.16-2.19,2.5,2.5,0,0,0,.14-.75Z"/><path class="cls-2" d="M152.39,14.76l2.86,7.73c.3.86.62,1.89.84,2.67h.05c.24-.78.51-1.78.84-2.73l2.59-7.67h2.51l-3.57,9.32c-1.7,4.48-2.86,6.42-4.48,7.83a6.45,6.45,0,0,1-2.92,1.54l-.6-2a6.26,6.26,0,0,0,2.08-1.16,7.22,7.22,0,0,0,2-2.65,1.74,1.74,0,0,0,.19-.57,2.05,2.05,0,0,0-.16-.62l-4.84-11.69Z"/><path class="cls-3" d="M11.53,2l-7,8.85,0,11.32L11,21.39s1.22-.2,1.3,1a1.08,1.08,0,0,1-1.06,1.29l-6.69.9v2.42l14.33,2.59V10.82ZM14.7,18.42A4,4,0,0,1,11.77,20h-.19a4.05,4.05,0,0,1-3.05-1.5A6,6,0,0,1,7.16,15c0-.12,0-.23,0-.35a5.84,5.84,0,0,1,1.14-3.54,4,4,0,0,1,2.93-1.63h.19A4,4,0,0,1,14.46,11a6,6,0,0,1,1.37,3.57c0,.12,0,.23,0,.35a5.82,5.82,0,0,1-1.14,3.54"/><polygon class="cls-3" points="25.06 12.71 21.7 12.86 21.68 17.44 25.07 17.18 25.06 12.71"/><polygon class="cls-3" points="21.69 18.87 21.68 23.46 25.09 23.14 25.07 18.61 21.69 18.87"/><path class="cls-3" d="M13.8,11.53a3.18,3.18,0,0,0-2.39-1.2h-.14A3.09,3.09,0,0,0,9,11.62a5,5,0,0,0-1,3c0,.1,0,.2,0,.3a5.09,5.09,0,0,0,1.16,3,3.18,3.18,0,0,0,2.39,1.2h.14A3.1,3.1,0,0,0,14,17.89a5,5,0,0,0,1-3c0-.1,0-.2,0-.3a5.07,5.07,0,0,0-1.16-3M9,14.91c-.09-1.79.86-3.3,2.13-3.39A3.84,3.84,0,0,0,10,14.84,3.8,3.8,0,0,0,11.53,18v0c-1.29.07-2.4-1.35-2.5-3.15"/><polygon class="cls-3" points="26.45 12.64 26.45 17.09 29.25 16.91 29.25 12.55 26.45 12.64"/><polygon class="cls-3" points="26.45 23 29.25 22.73 29.25 18.32 26.45 18.52 26.45 23"/><path class="cls-2" d="M24.84,0H9.33L.17,10.81H3.4V22.32l-2.46.32A1.15,1.15,0,0,0,0,24.12a1.23,1.23,0,0,0,1.2.75L3.4,24.6v3.19l15.35,2.78L31,27.82l0-17h3.59ZM21.7,12.86l3.36-.16v4.47l-3.39.27ZM4.5,26.95l0-2.42,6.69-.9a1.08,1.08,0,0,0,1.06-1.29c-.08-1.16-1.3-1-1.3-1l-6.45.75,0-11.32,7-8.85,7.29,8.85V29.54Zm17.18-3.48V18.87l3.38-.26,0,4.53Zm7.57-.73L26.45,23V18.52l2.79-.2Zm-2.79-5.65V12.64l2.79-.09v4.36Z"/><path class="cls-2" d="M14.46,11a4,4,0,0,0-3.05-1.5h-.19a4,4,0,0,0-2.93,1.63,5.83,5.83,0,0,0-1.14,3.54c0,.11,0,.23,0,.35a6,6,0,0,0,1.37,3.57A4.05,4.05,0,0,0,11.59,20h.19a4,4,0,0,0,2.93-1.63,5.82,5.82,0,0,0,1.14-3.54c0-.11,0-.23,0-.35A6,6,0,0,0,14.46,11M14,17.89a3.09,3.09,0,0,1-2.28,1.29h-.14A3.19,3.19,0,0,1,9.19,18a5.08,5.08,0,0,1-1.16-3c0-.1,0-.2,0-.3a5,5,0,0,1,1-3,3.09,3.09,0,0,1,2.28-1.29h.14a3.18,3.18,0,0,1,2.4,1.2,5.07,5.07,0,0,1,1.16,3c0,.1,0,.2,0,.3a5,5,0,0,1-1,3"/><path class="cls-2" d="M10,14.84a3.85,3.85,0,0,1,1.16-3.33c-1.27.09-2.22,1.6-2.13,3.39s1.22,3.22,2.5,3.15v0A3.81,3.81,0,0,1,10,14.84"/><path class="cls-2" d="M165.78,14.83a2,2,0,1,1-2.12,2,2.07,2.07,0,0,1,2.1-2Zm0,.41a1.63,1.63,0,0,0,0,3.26,1.56,1.56,0,0,0,1.56-1.63,1.58,1.58,0,0,0-1.57-1.63Zm-.31,2.69H165v-2a3.92,3.92,0,0,1,.78-.08,1.15,1.15,0,0,1,.71.16.55.55,0,0,1,.2.43.52.52,0,0,1-.42.49v0a.59.59,0,0,1,.38.5,1.33,1.33,0,0,0,.15.5h-.51a1.64,1.64,0,0,1-.16-.49c0-.22-.16-.32-.42-.32h-.22Zm0-1.15h.22c.26,0,.47-.09.47-.3s-.14-.31-.44-.31a1.15,1.15,0,0,0-.26,0Z"/></g></g></svg>