<svg xmlns="http://www.w3.org/2000/svg" viewBox="0 0 167.17 27.5"><defs><style>.cls-1{fill:#aaacae;}.cls-2{fill:#5a5758;}.cls-3{fill:none;}.cls-4{fill:#e5e6e6;stroke:#5a5758;stroke-width:0.57px;}</style></defs><title>Zasób 6</title><g id="Warstwa_2" data-name="Warstwa 2"><g id="Warstwa_1-2" data-name="Warstwa 1"><circle class="cls-1" cx="11.65" cy="15.57" r="1.9"/><circle class="cls-1" cx="34.49" cy="15.57" r="1.9"/><path class="cls-2" d="M7.69,11.61a5.6,5.6,0,1,0,4-1.64A5.56,5.56,0,0,0,7.69,11.61Zm1.21,6.71a3.88,3.88,0,1,1,2.75,1.14A3.86,3.86,0,0,1,8.91,18.31Z"/><path class="cls-2" d="M30.53,11.61a5.6,5.6,0,1,0,4-1.64A5.56,5.56,0,0,0,30.53,11.61Zm1.21,6.71a3.88,3.88,0,1,1,2.75,1.14A3.86,3.86,0,0,1,31.75,18.31Z"/><path class="cls-3" d="M34.49,6.2a9.37,9.37,0,1,0,9.37,9.37A9.38,9.38,0,0,0,34.49,6.2Z"/><circle class="cls-3" cx="11.65" cy="15.57" r="9.37"/><path class="cls-2" d="M43.51,8.2a10.18,10.18,0,0,1,2-3.78H37.9l-.39-.1C37.1,3.67,34.25,0,22.88,0,10.39,0,8.18,4.43,8.18,4.43H.2A10.76,10.76,0,0,1,2.35,8.57,11.64,11.64,0,0,0,20.54,23.09l2.65,3.7,2.28-3.85a11.65,11.65,0,1,0,18-14.74ZM11.65,24.93A9.37,9.37,0,1,1,21,15.57,9.38,9.38,0,0,1,11.65,24.93Zm22.84,0a9.37,9.37,0,1,1,9.37-9.37A9.38,9.38,0,0,1,34.49,24.93Z"/><path class="cls-4" d="M23.59,1.34c8,0,11,3.32,11,3.32S26,3.24,23.19,13.75C20.35,3.24,11.81,4.66,11.81,4.66s3-3.32,11-3.32Z"/><path class="cls-2" d="M54.76,7v3H58v1.72H54.76v6.72c0,1.54.44,2.42,1.7,2.42a4.24,4.24,0,0,0,1.31-.15l.1,1.72a6.17,6.17,0,0,1-2,.31,3.23,3.23,0,0,1-2.45-1,4.87,4.87,0,0,1-.87-3.27v-6.8H50.62V9.94h1.93V7.65Z"/><path class="cls-2" d="M60,13.83c0-1.47,0-2.73-.1-3.89h2l.1,2.45h.08a3.77,3.77,0,0,1,3.48-2.73,2.39,2.39,0,0,1,.62.08v2.11a7.46,7.46,0,0,0-.8-.05,3.17,3.17,0,0,0-3,2.88,7.08,7.08,0,0,0-.08,1.08V22.4H60Z"/><path class="cls-2" d="M69.08,7.65a1.41,1.41,0,0,1-1.42-1.47,1.41,1.41,0,0,1,1.47-1.44,1.39,1.39,0,0,1,1.44,1.44A1.42,1.42,0,0,1,69.1,7.65ZM68,22.4V9.94h2.26V22.4Z"/><path class="cls-2" d="M73.48,14c0-1.6,0-2.88-.1-4.07h2l.13,2.14h.05A4.81,4.81,0,0,1,80,9.66c3,0,5.3,2.55,5.3,6.33,0,4.48-2.75,6.69-5.66,6.69a4.34,4.34,0,0,1-3.83-2h-.05V27.5H73.48Zm2.27,3.32a3.7,3.7,0,0,0,.1.93,3.47,3.47,0,0,0,3.37,2.65c2.39,0,3.78-2,3.78-4.81,0-2.5-1.29-4.63-3.68-4.63a3.62,3.62,0,0,0-3.45,2.78,6.25,6.25,0,0,0-.13.93Z"/><path class="cls-1" d="M96.36,19.42a20.88,20.88,0,0,0,.18,3h-2l-.21-1.57h-.08a4.6,4.6,0,0,1-3.81,1.85,3.55,3.55,0,0,1-3.81-3.58c0-3,2.68-4.66,7.49-4.63v-.26a2.56,2.56,0,0,0-2.83-2.88,6,6,0,0,0-3.27.93l-.51-1.52A8.07,8.07,0,0,1,91.6,9.66c3.84,0,4.76,2.6,4.76,5.1ZM94.15,16c-2.47-.05-5.28.39-5.28,2.81A2,2,0,0,0,91,21,3.15,3.15,0,0,0,94,18.93a2.32,2.32,0,0,0,.1-.72Z"/><path class="cls-1" d="M110.21,4.13V19.18c0,1.11,0,2.37.1,3.22h-2l-.1-2.16h-.05a4.57,4.57,0,0,1-4.22,2.45c-3,0-5.35-2.55-5.35-6.33,0-4.17,2.57-6.69,5.58-6.69a4.14,4.14,0,0,1,3.76,1.88h.05V4.13ZM107.95,15a4.22,4.22,0,0,0-.1-1,3.34,3.34,0,0,0-3.27-2.6c-2.34,0-3.73,2.06-3.73,4.79,0,2.55,1.26,4.63,3.68,4.63a3.43,3.43,0,0,0,3.32-2.7,3.94,3.94,0,0,0,.1-1Z"/><path class="cls-1" d="M114.28,9.94l2.45,7c.41,1.16.75,2.19,1,3.22h.08c.28-1,.64-2.06,1.05-3.22l2.42-7h2.37L118.76,22.4H116.6L111.86,9.94Z"/><path class="cls-1" d="M126.33,7.65a1.41,1.41,0,0,1-1.42-1.47,1.41,1.41,0,0,1,1.47-1.44,1.39,1.39,0,0,1,1.44,1.44,1.42,1.42,0,0,1-1.47,1.47ZM125.24,22.4V9.94h2.27V22.4Z"/><path class="cls-1" d="M130.42,20.11a6.4,6.4,0,0,0,3,.88c1.62,0,2.39-.8,2.39-1.85s-.64-1.67-2.29-2.29c-2.26-.82-3.32-2-3.32-3.53,0-2,1.65-3.66,4.3-3.66a5.78,5.78,0,0,1,3,.77L137,12.05a5.08,5.08,0,0,0-2.55-.72c-1.34,0-2.06.77-2.06,1.7s.72,1.52,2.34,2.14C136.88,16,138,17,138,18.93c0,2.21-1.72,3.76-4.63,3.76a7.11,7.11,0,0,1-3.5-.87Z"/><path class="cls-1" d="M145.45,22.69c-3.35,0-6-2.47-6-6.41,0-4.17,2.75-6.62,6.18-6.62,3.58,0,6,2.6,6,6.38,0,4.63-3.22,6.64-6.18,6.64Zm.08-1.7c2.16,0,3.79-2,3.79-4.87,0-2.11-1.06-4.76-3.73-4.76s-3.81,2.47-3.81,4.84c0,2.73,1.55,4.79,3.73,4.79Z"/><path class="cls-1" d="M154,13.83c0-1.47,0-2.73-.1-3.89h2l.1,2.45h.08a3.77,3.77,0,0,1,3.47-2.73,2.39,2.39,0,0,1,.62.08v2.11a7.46,7.46,0,0,0-.8-.05,3.18,3.18,0,0,0-3,2.88,7.2,7.2,0,0,0-.08,1.08V22.4H154Z"/><path class="cls-1" d="M163.56,9.77a4.45,4.45,0,0,1,.78-.06,1.27,1.27,0,0,1,.84.21.68.68,0,0,1,.24.56.71.71,0,0,1-.46.66h0a.67.67,0,0,1,.35.5c.08.3.16.65.21.76h-.6a3.57,3.57,0,0,1-.18-.62c-.07-.34-.18-.42-.43-.43h-.17v1.05h-.58Zm.58,1.15h.23c.29,0,.47-.15.47-.39s-.16-.37-.43-.37a1.17,1.17,0,0,0-.27,0Z"/><path class="cls-1" d="M161.86,11.17a2.65,2.65,0,1,0,2.65-2.65A2.66,2.66,0,0,0,161.86,11.17Zm.57,0a2.08,2.08,0,1,1,2.08,2.08A2.08,2.08,0,0,1,162.43,11.17Z"/></g></g></svg>